<svg width="19" height="20" viewBox="0 0 19 20" fill="none" xmlns="http://www.w3.org/2000/svg">
<path d="M2.37517 2.875L5.21659 5.71642M16.6252 17.125L13.784 14.2839M10.9844 15.4028C10.5038 15.494 10.0077 15.5417 9.50054 15.5417C5.95573 15.5417 2.95507 13.2119 1.94629 9.99997C2.22092 9.1256 2.64316 8.31661 3.18381 7.60219M7.82079 8.32062C8.25058 7.89083 8.84433 7.625 9.50017 7.625C10.8118 7.625 11.8752 8.68832 11.8752 10C11.8752 10.6558 11.6093 11.2496 11.1796 11.6794M7.82079 8.32062L11.1796 11.6794M7.82079 8.32062L5.21659 5.71642M11.1796 11.6794L5.21659 5.71642M11.1796 11.6794L13.784 14.2839M5.21659 5.71642C6.45145 4.9203 7.92204 4.45833 9.50052 4.45833C13.0453 4.45833 16.046 6.78814 17.0548 10C16.4951 11.7818 15.3225 13.2922 13.784 14.2839" stroke="#040308" stroke-opacity="0.4" stroke-width="2" stroke-linecap="round" stroke-linejoin="round"/>
</svg>
