<svg width="29" height="29" viewBox="0 0 29 29" fill="none" xmlns="http://www.w3.org/2000/svg">
<g filter="url(#filter0_d_2052_20)">
<path d="M13.5304 1.78332C13.6906 1.34573 14.3094 1.34572 14.4696 1.78331L17.5347 10.1604C17.6045 10.3513 17.7829 10.4809 17.9859 10.4883L26.9002 10.8147C27.3659 10.8318 27.5571 11.4204 27.1904 11.7079L20.1705 17.2117C20.0106 17.337 19.9425 17.5467 19.9981 17.7422L22.4423 26.321C22.57 26.7692 22.0693 27.1329 21.6826 26.873L14.2789 21.8974C14.1102 21.7841 13.8898 21.7841 13.7211 21.8974L6.31741 26.873C5.93067 27.1329 5.42998 26.7692 5.55766 26.321L8.00187 17.7422C8.05755 17.5467 7.98941 17.337 7.8295 17.2117L0.809558 11.7079C0.442861 11.4204 0.634107 10.8318 1.09976 10.8147L10.0141 10.4883C10.2171 10.4809 10.3955 10.3513 10.4653 10.1604L13.5304 1.78332Z" fill="white"/>
<path d="M13.7656 1.86914C13.8358 1.67767 14.0816 1.65381 14.1953 1.79785L14.2344 1.86914L17.2998 10.2461C17.3914 10.4965 17.6077 10.6769 17.8643 10.7256L17.9766 10.7383L26.8906 11.0645C27.0945 11.0719 27.1934 11.2984 27.0918 11.4512L27.0361 11.5107L20.0166 17.0146C19.8067 17.1793 19.7022 17.441 19.7354 17.7002L19.7578 17.8105L22.2021 26.3896C22.2579 26.5856 22.073 26.7494 21.8965 26.7002L21.8223 26.666L14.418 21.6895C14.1967 21.541 13.9158 21.5223 13.6797 21.6338L13.582 21.6895L6.17773 26.666C6.00849 26.7794 5.79562 26.6539 5.78809 26.4707L5.79785 26.3896L8.24219 17.8105C8.31524 17.5541 8.2465 17.281 8.06738 17.0908L7.9834 17.0146L0.963867 11.5107C0.803602 11.3849 0.856536 11.144 1.02832 11.0801L1.10938 11.0645L10.0234 10.7383C10.2897 10.7285 10.5278 10.5785 10.6533 10.3496L10.7002 10.2461L13.7656 1.86914Z" stroke="#777777" stroke-width="0.5"/>
</g>
<defs>
<filter id="filter0_d_2052_20" x="0.117188" y="0.955109" width="28.7656" height="27.5049" filterUnits="userSpaceOnUse" color-interpolation-filters="sRGB">
<feFlood flood-opacity="0" result="BackgroundImageFix"/>
<feColorMatrix in="SourceAlpha" type="matrix" values="0 0 0 0 0 0 0 0 0 0 0 0 0 0 0 0 0 0 127 0" result="hardAlpha"/>
<feOffset dx="0.5" dy="0.5"/>
<feGaussianBlur stdDeviation="0.5"/>
<feComposite in2="hardAlpha" operator="out"/>
<feColorMatrix type="matrix" values="0 0 0 0 0 0 0 0 0 0 0 0 0 0 0 0 0 0 0.2 0"/>
<feBlend mode="normal" in2="BackgroundImageFix" result="effect1_dropShadow_2052_20"/>
<feBlend mode="normal" in="SourceGraphic" in2="effect1_dropShadow_2052_20" result="shape"/>
</filter>
</defs>
</svg>
